<?xml version="1.0" standalone="no"?><!DOCTYPE svg PUBLIC "-//W3C//DTD SVG 1.1//EN" "http://www.w3.org/Graphics/SVG/1.1/DTD/svg11.dtd"><svg t="1712828143607" class="icon" viewBox="0 0 1024 1024" version="1.1" xmlns="http://www.w3.org/2000/svg" p-id="2388" xmlns:xlink="http://www.w3.org/1999/xlink" width="200" height="200"><path d="M960.917333 725.333333c11.242667 0 20.416 5.482667 20.416 12.181334V969.173333c0 6.698667-9.173333 12.181333-20.416 12.181334H573.226667c-11.242667 0-20.416-5.482667-20.416-12.181334V737.493333c0-6.698667 9.173333-12.181333 20.416-12.181333h387.690666zM450.773333 384c11.242667 0 20.416 12.8 20.416 28.437333v540.458667c0 15.637333-9.173333 28.437333-20.416 28.437333H63.082667C51.84 981.333333 42.666667 968.533333 42.666667 952.896V412.437333C42.666667 396.8 51.84 384 63.082667 384H450.773333zM896 810.666667H638.144v85.333333H896v-85.333333zM385.834667 469.333333H128v426.666667h257.834667V469.333333zM960.917333 42.666667c11.242667 0 20.416 12.8 20.416 28.437333v540.458667C981.333333 627.2 972.16 640 960.917333 640H573.226667c-11.242667 0-20.416-12.8-20.416-28.437333V71.104c0-15.637333 9.173333-28.437333 20.416-28.437333h387.690666zM896 128H638.144v426.666667H896V128zM450.773333 42.666667c11.242667 0 20.416 5.482667 20.416 12.181333V286.506667c0 6.698667-9.173333 12.181333-20.416 12.181333H63.082667C51.84 298.666667 42.666667 293.184 42.666667 286.485333V54.826667C42.666667 48.149333 51.84 42.666667 63.082667 42.666667H450.773333z m-64.938666 85.333333H128v85.333333h257.834667V128z" fill="#000000" p-id="2389"></path></svg>