<?xml version="1.0" standalone="no"?><!DOCTYPE svg PUBLIC "-//W3C//DTD SVG 1.1//EN" "http://www.w3.org/Graphics/SVG/1.1/DTD/svg11.dtd"><svg t="1712882951843" class="icon" viewBox="0 0 1024 1024" version="1.1" xmlns="http://www.w3.org/2000/svg" p-id="2623" xmlns:xlink="http://www.w3.org/1999/xlink" width="200" height="200"><path d="M259.83 65c-48.87 0-88.48 37.28-88.48 83.28 0 45.99 39.61 83.28 88.48 83.28 48.86 0 88.48-37.29 88.48-83.28 0-46-39.62-83.28-88.48-83.28zM512 65c-48.86 0-88.47 37.28-88.47 83.28 0 45.99 39.61 83.28 88.47 83.28s88.47-37.29 88.47-83.28c0-46-39.61-83.28-88.47-83.28z m252.17 166.57c48.87 0 88.48-37.29 88.48-83.28 0-46-39.61-83.28-88.48-83.28s-88.48 37.28-88.48 83.28c0 45.98 39.61 83.28 88.48 83.28z m-504.34 75.91c-48.87 0-88.48 37.28-88.48 83.28s39.61 83.28 88.48 83.28c48.86 0 88.48-37.28 88.48-83.28s-39.62-83.28-88.48-83.28z m252.17 0c-48.86 0-88.47 37.28-88.47 83.28s39.61 83.28 88.47 83.28 88.47-37.28 88.47-83.28-39.61-83.28-88.47-83.28z m252.17 0c-48.87 0-88.48 37.28-88.48 83.28s39.61 83.28 88.48 83.28 88.48-37.28 88.48-83.28-39.61-83.28-88.48-83.28zM259.83 549.96c-48.87 0-88.48 37.28-88.48 83.27 0 46 39.61 83.29 88.48 83.29 48.86 0 88.48-37.29 88.48-83.29 0-45.99-39.62-83.27-88.48-83.27z m252.17 0c-48.86 0-88.47 37.28-88.47 83.27 0 46 39.61 83.29 88.47 83.29s88.47-37.29 88.47-83.29c0-45.99-39.61-83.27-88.47-83.27z m252.17 0c-48.87 0-88.48 37.28-88.48 83.27 0 46 39.61 83.29 88.48 83.29s88.48-37.29 88.48-83.29c0-45.99-39.61-83.27-88.48-83.27zM512 792.44c-48.86 0-88.47 37.29-88.47 83.28 0 46 39.61 83.28 88.47 83.28s88.47-37.28 88.47-83.28c0-45.99-39.61-83.28-88.47-83.28z" p-id="2624"></path></svg>