<svg t="1713486338338" class="icon" viewBox="0 0 1024 1024" version="1.1" xmlns="http://www.w3.org/2000/svg" p-id="2488" width="200" height="200"><path d="M849.066667 802.133333l-128-132.266666c42.666667-55.466667 68.266667-119.466667 68.266666-196.266667 0-170.666667-140.8-311.466667-311.466666-311.466667s-311.466667 140.8-311.466667 311.466667 140.8 311.466667 311.466667 311.466667c72.533333 0 140.8-25.6 196.266666-68.266667l128 128c4.266667 8.533333 12.8 8.533333 21.333334 8.533333s17.066667-4.266667 21.333333-8.533333c12.8-8.533333 12.8-29.866667 4.266667-42.666667zM230.4 477.866667C230.4 341.333333 341.333333 230.4 477.866667 230.4c136.533333 0 247.466667 110.933333 247.466666 247.466667 0 136.533333-110.933333 247.466667-247.466666 247.466666-136.533333 0-247.466667-110.933333-247.466667-247.466666z" fill="#111111" p-id="2489"></path></svg>