<svg t="1713487178527" class="icon" viewBox="0 0 1024 1024" version="1.1" xmlns="http://www.w3.org/2000/svg" p-id="3598" width="200" height="200"><path d="M946.92 70.03c-17.59-7.67-38.01 0.38-45.65 17.94-43.27 99.34-97.93 118.77-177.72 118.77-79.35 0-133.66-18.98-176.49-115.98-4.13-9.35-11.93-15.85-20.93-18.82-1.13-0.65-2.19-1.38-3.41-1.91-17.58-7.67-38 0.38-45.65 17.94-43.29 99.34-97.94 118.77-177.72 118.77-79.36 0-133.68-18.98-176.5-115.98-7.75-17.5-28.18-25.46-45.74-17.71-17.52 7.73-25.46 28.2-17.71 45.74 48.69 110.3 118.42 144.59 187.36 154.03L147.16 570c-6.94 20.67 0.93 43.12 19.18 54.61 40.46 25.45 90.4 43.75 140.82 43.75 46.84 0 94.1-15.79 134.56-56.32 12.59-12.62 16.89-31.79 10.97-48.76L351.91 272.79c43.3-5.97 86.89-21.91 125.51-60.36v675.32H315.3c-19.16 0-34.68 15.53-34.68 34.68s15.53 34.68 34.68 34.68h404.18c19.16 0 34.68-15.53 34.68-34.68s-15.53-34.68-34.68-34.68H546.79V213.99c38.22 37.38 81.34 52.95 124.19 58.82L571.36 570c-6.95 20.69 0.94 43.15 19.18 54.61 40.46 25.46 90.41 43.76 140.84 43.76 46.82 0 94.06-15.78 134.48-56.28 12.6-12.6 16.94-31.75 11.03-48.81L776.12 272.79c69.41-9.57 139.67-44.46 188.74-157.12 7.65-17.55-0.38-38-17.94-45.64zM218.69 574.86l80.87-241.3 82.85 238.78c-57.14 46.9-125.3 23.07-163.72 2.52z m424.21 0l80.87-241.3 82.85 238.78c-57.11 46.9-125.28 23.09-163.72 2.52z" p-id="3599"></path></svg>